<?xml version="1.0" standalone="no"?>
<!DOCTYPE svg PUBLIC "-//W3C//DTD SVG 20010904//EN"
 "http://www.w3.org/TR/2001/REC-SVG-20010904/DTD/svg10.dtd">
<svg version="1.0" xmlns="http://www.w3.org/2000/svg"
 width="432.000000pt" height="432.000000pt" viewBox="0 0 432.000000 432.000000"
 preserveAspectRatio="xMidYMid meet">

<g transform="translate(0.000000,432.000000) scale(0.100000,-0.100000)"
fill="#000000" stroke="none">
<path d="M1815 4063 c-11 -3 -24 -8 -28 -12 -7 -7 12 -156 44 -348 10 -59 15
-73 30 -73 10 0 22 7 26 15 7 12 15 13 45 3 46 -14 101 -3 135 26 24 21 28 32
31 93 5 87 -10 144 -49 182 -25 25 -39 31 -74 31 -24 0 -56 -5 -70 -12 -32
-15 -37 -9 -43 52 -5 50 -7 52 -47 43z m164 -142 c21 -21 51 -109 51 -148 0
-31 -25 -79 -45 -87 -24 -9 -63 -7 -69 3 -5 7 -36 210 -36 232 0 4 8 10 18 12
37 10 63 6 81 -12z"/>
<path d="M2706 3999 c-42 -12 -71 -43 -102 -112 -35 -79 -44 -188 -20 -235 22
-43 87 -75 152 -76 57 -1 84 16 110 67 14 26 13 28 -13 38 -23 9 -30 7 -38 -6
-30 -51 -48 -65 -79 -65 -46 0 -76 35 -76 87 0 79 62 243 99 263 55 29 111 -6
111 -70 0 -38 2 -40 30 -40 28 0 30 2 30 40 0 63 -37 91 -150 113 -14 3 -38 1
-54 -4z"/>
<path d="M1535 3870 c-46 -23 -75 -64 -75 -108 0 -53 33 -134 71 -174 30 -31
43 -38 75 -38 47 0 138 41 153 69 11 19 16 81 7 81 -26 0 -56 -23 -56 -43 0
-45 -59 -77 -96 -52 -26 17 -58 71 -49 84 2 5 40 21 82 37 43 15 82 31 87 35
15 13 -3 56 -38 93 -28 31 -40 36 -77 36 -24 0 -62 -9 -84 -20z m89 -36 c25
-24 39 -55 29 -64 -6 -6 -99 -40 -108 -40 -2 0 -5 17 -8 37 -11 67 45 110 87
67z"/>
<path d="M1274 3857 c-3 -8 20 -73 51 -145 30 -73 55 -137 55 -142 0 -6 -51
34 -114 89 -63 56 -121 101 -128 101 -7 0 -23 -8 -35 -18 l-23 -17 55 -149
c30 -82 55 -152 55 -155 0 -3 -42 35 -92 85 -51 49 -104 99 -118 111 l-25 22
-34 -21 -33 -21 43 -40 c24 -22 92 -86 150 -143 58 -57 112 -104 120 -104 8 0
25 9 38 19 l23 18 -56 153 c-31 84 -54 155 -52 158 3 2 29 -18 58 -45 29 -27
84 -75 121 -107 65 -56 69 -58 94 -45 14 8 27 18 29 24 2 5 -16 60 -41 120
-26 61 -60 145 -77 188 -29 73 -52 95 -64 64z"/>
<path d="M2973 3769 c-66 -42 -114 -148 -98 -218 13 -59 118 -122 178 -107 67
16 137 122 137 207 0 54 -23 85 -88 118 -52 26 -88 26 -129 0z m137 -49 c27
-27 25 -44 -9 -115 -48 -101 -100 -137 -143 -98 -37 34 -14 121 53 198 36 40
69 45 99 15z"/>
<path d="M2162 3738 c-7 -7 -12 -25 -12 -40 0 -21 6 -29 25 -34 31 -8 55 10
55 40 0 26 -18 46 -40 46 -9 0 -21 -5 -28 -12z"/>
<path d="M3274 3563 c-27 -32 -74 -86 -104 -121 l-54 -63 27 -26 c26 -27 26
-27 48 -7 12 10 50 54 86 97 49 58 71 77 89 77 24 0 74 -40 74 -59 0 -11 -26
-44 -114 -145 l-60 -68 28 -25 c16 -13 32 -23 36 -21 18 7 171 194 177 216 12
51 -63 132 -122 132 -9 0 -23 16 -31 35 -8 19 -18 35 -22 35 -4 0 -30 -26 -58
-57z"/>
<path d="M3572 3368 c-9 -9 -8 -16 5 -30 11 -12 13 -22 7 -26 -6 -4 -49 -40
-97 -81 -78 -66 -87 -77 -87 -108 0 -25 8 -43 29 -64 45 -44 86 -33 45 12 -10
11 -13 23 -7 32 11 20 168 147 181 147 6 0 16 -9 22 -20 6 -11 15 -20 21 -20
19 0 21 31 3 51 -18 21 -18 21 10 45 27 24 28 26 10 39 -30 23 -52 27 -75 14
-18 -9 -24 -8 -31 5 -11 19 -20 20 -36 4z"/>
<path d="M793 3353 c-4 -10 -7 -37 -7 -60 l1 -42 -41 -3 c-23 -2 -41 -8 -41
-14 0 -6 50 -51 110 -99 61 -48 115 -92 122 -97 9 -7 20 -1 37 19 14 15 25 30
25 33 0 3 -29 27 -64 54 -118 88 -134 117 -100 170 15 22 14 24 -10 40 -24 16
-26 16 -32 -1z"/>
<path d="M3683 3132 c-8 -5 -8 -13 2 -32 11 -21 21 -25 56 -25 36 0 45 -4 58
-27 15 -25 14 -28 -8 -52 -41 -44 -58 -43 -103 9 -48 54 -91 79 -124 71 -89
-23 -85 -148 6 -186 27 -11 30 -16 24 -44 -4 -22 -1 -36 9 -44 11 -9 34 1 114
48 145 85 162 113 123 197 -29 64 -62 93 -107 93 -21 0 -43 -4 -50 -8z m-12
-154 c16 -18 29 -35 29 -38 0 -4 -17 -16 -38 -28 -32 -18 -42 -19 -62 -9 -13
7 -31 24 -39 39 -14 24 -14 28 3 47 29 32 72 27 107 -11z"/>
<path d="M602 3075 c-76 -64 -91 -158 -35 -217 73 -77 185 -100 244 -51 35 30
68 94 69 133 0 66 -99 147 -193 157 -47 5 -56 2 -85 -22z m101 -59 c66 -29
127 -81 127 -109 0 -25 -37 -67 -59 -67 -23 0 -120 47 -158 76 -40 30 -44 73
-11 104 28 25 36 25 101 -4z"/>
<path d="M3813 2820 c-52 -11 -112 -41 -138 -70 -15 -16 -20 -35 -19 -73 0
-43 5 -54 32 -78 26 -24 30 -33 25 -62 -3 -20 -1 -37 6 -41 8 -5 395 117 410
130 4 3 -28 74 -33 74 -2 0 -20 -7 -39 -15 -55 -23 -67 -20 -67 18 0 36 -30
91 -57 105 -30 16 -76 20 -120 12z m106 -83 c31 -16 49 -64 30 -82 -8 -7 -55
-26 -104 -42 -100 -33 -130 -31 -141 11 -13 53 16 82 111 112 51 16 74 17 104
1z"/>
<path d="M336 2798 c-12 -48 -7 -56 44 -73 28 -9 50 -18 50 -19 0 -1 -9 -19
-20 -41 -29 -57 -26 -98 10 -139 69 -79 246 -100 281 -34 21 40 28 79 18 105
-8 21 -5 29 17 49 14 14 24 30 22 36 -4 11 -55 29 -233 83 -49 15 -109 33
-133 41 -53 17 -49 18 -56 -8z m258 -137 c37 -11 74 -26 82 -32 18 -15 18 -73
-1 -89 -47 -39 -235 27 -235 84 0 8 5 27 12 41 14 31 28 30 142 -4z"/>
<path d="M3824 2451 c-60 -27 -84 -63 -84 -125 0 -129 102 -188 242 -140 72
24 93 54 92 127 0 76 -21 118 -68 141 -45 21 -131 20 -182 -3z m200 -80 c24
-27 17 -70 -16 -94 -39 -29 -180 -37 -208 -12 -40 36 -19 98 38 111 15 3 32 7
37 9 6 2 37 4 71 4 48 1 65 -3 78 -18z"/>
<path d="M377 2389 c-27 -16 -47 -71 -47 -129 0 -44 4 -56 30 -82 35 -34 64
-34 68 2 2 19 -5 29 -28 42 -62 35 -25 116 47 102 29 -6 31 -8 36 -70 7 -69
27 -118 52 -128 36 -13 82 -6 103 17 27 29 30 96 5 138 -17 28 -17 30 5 45 12
8 22 25 22 38 0 21 -5 24 -77 30 -110 9 -195 7 -216 -5z m231 -98 c23 -29 26
-61 7 -81 -41 -46 -105 -2 -105 71 l0 39 43 -6 c23 -4 48 -14 55 -23z"/>
<path d="M3762 2063 l3 -38 101 -6 c113 -7 141 -18 150 -57 3 -15 7 -33 10
-39 4 -15 54 -17 54 -3 0 23 -29 79 -46 88 -15 9 -14 11 13 25 17 9 33 25 35
35 5 18 -3 20 -106 26 -61 3 -135 6 -164 6 l-53 0 3 -37z"/>
<path d="M435 2048 c-208 -10 -215 -12 -215 -41 0 -53 7 -54 228 -42 111 7
205 15 208 18 4 3 3 22 0 42 -6 28 -11 35 -29 33 -12 0 -98 -5 -192 -10z"/>
<path d="M433 1856 c-101 -18 -185 -35 -188 -38 -9 -9 6 -59 19 -64 7 -3 55 2
107 10 154 24 304 49 307 52 2 1 0 18 -3 38 -9 44 -1 44 -242 2z"/>
<path d="M3721 1751 c-23 -43 -14 -56 52 -77 55 -18 62 -23 59 -45 -16 -139
-16 -136 15 -168 60 -59 172 -62 209 -6 15 24 64 168 64 191 0 6 -19 15 -42
21 -44 11 -306 89 -332 99 -8 3 -19 -3 -25 -15z m248 -137 c47 -14 90 -30 95
-34 12 -11 -12 -77 -30 -84 -43 -16 -123 2 -162 38 -19 17 -22 27 -17 56 7 37
13 50 22 50 3 0 44 -12 92 -26z"/>
<path d="M532 1711 c-29 -10 -69 -33 -88 -52 -30 -29 -34 -39 -34 -82 0 -55
20 -104 55 -137 50 -47 195 -21 255 44 21 23 25 37 24 84 -1 131 -86 188 -212
143z m162 -83 c9 -12 16 -30 16 -38 0 -61 -199 -130 -244 -84 -26 25 -20 70
12 92 45 31 104 51 154 51 37 1 50 -3 62 -21z"/>
<path d="M3645 1462 c-44 -9 -76 -61 -78 -126 -2 -32 -6 -42 -22 -45 -21 -3
-35 -18 -35 -37 0 -12 253 -154 275 -154 11 0 35 40 35 59 0 4 -50 35 -110 67
-61 32 -113 66 -116 76 -8 26 6 68 28 79 25 13 45 6 161 -59 54 -30 99 -53
101 -51 15 20 36 55 36 61 0 8 -207 123 -235 129 -11 3 -29 3 -40 1z"/>
<path d="M735 1350 c-103 -57 -136 -61 -170 -24 -25 27 -65 26 -65 -2 0 -17
57 -54 84 -54 17 0 17 -1 2 -25 -17 -27 -22 -65 -7 -65 7 0 265 134 279 145 3
2 -27 75 -31 75 -1 -1 -42 -23 -92 -50z"/>
<path d="M858 1171 c-96 -72 -123 -84 -151 -70 -12 6 -29 18 -39 26 -13 12
-20 12 -37 1 -12 -7 -21 -16 -21 -19 0 -14 51 -39 80 -39 33 0 36 -7 19 -44
-7 -14 -9 -32 -6 -40 6 -14 9 -14 34 1 74 46 233 165 233 174 0 13 -30 59 -39
59 -3 0 -36 -22 -73 -49z"/>
<path d="M3906 1213 c-6 -6 1 -92 9 -120 3 -9 12 -10 35 -2 17 6 29 14 28 18
-2 3 -13 27 -25 52 -22 48 -35 63 -47 52z"/>
<path d="M3453 1179 c-6 -6 -9 -17 -6 -25 3 -8 -11 -21 -35 -33 -75 -38 -103
-99 -74 -163 33 -75 152 -158 208 -144 29 8 94 63 94 81 0 29 23 25 65 -9 l43
-36 20 32 c12 18 18 36 16 40 -8 12 -307 268 -314 268 -3 0 -11 -5 -17 -11z
m88 -151 c46 -39 86 -73 88 -75 8 -6 -23 -55 -42 -64 -32 -17 -76 1 -132 54
-65 62 -75 92 -45 130 12 15 27 27 35 27 7 0 50 -32 96 -72z"/>
<path d="M922 1006 c-84 -85 -92 -97 -92 -132 0 -96 125 -180 189 -126 20 17
20 17 2 40 -19 21 -20 22 -49 5 -28 -16 -31 -16 -56 0 -33 22 -34 57 -2 94
l24 28 56 -39 c73 -50 125 -58 160 -23 56 56 13 149 -75 163 -35 6 -38 9 -33
30 6 22 -9 54 -25 54 -4 0 -49 -42 -99 -94z m180 -33 c25 -22 19 -51 -14 -76
l-26 -20 -46 23 c-25 12 -46 27 -46 33 0 6 12 24 28 40 22 23 33 27 56 23 16
-4 38 -14 48 -23z"/>
<path d="M3207 925 l-29 -26 124 -145 c67 -81 131 -156 140 -167 l17 -22 25
24 c14 14 26 28 26 33 0 8 -160 202 -236 285 l-39 43 -28 -25z"/>
<path d="M1215 861 c-28 -12 -52 -41 -59 -71 -6 -25 7 -51 67 -138 24 -34 27
-44 17 -61 -14 -27 -54 -27 -81 0 -16 16 -19 28 -15 53 5 28 3 34 -20 45 -22
10 -29 9 -35 -1 -27 -43 15 -119 85 -152 51 -24 83 -20 117 13 44 44 40 83
-16 157 -46 62 -53 82 -33 102 18 18 42 15 72 -9 20 -16 26 -29 26 -58 0 -30
5 -40 24 -49 30 -14 36 -8 36 39 0 77 -116 158 -185 130z"/>
<path d="M3070 820 l-25 -19 89 -130 c49 -72 92 -131 95 -131 5 0 40 21 60 36
7 5 -173 264 -183 264 -6 0 -22 -9 -36 -20z"/>
<path d="M2910 731 c-86 -26 -127 -76 -115 -138 5 -30 9 -34 28 -29 12 3 26 6
31 6 4 0 6 15 3 33 -6 45 7 73 39 81 36 9 68 -21 105 -99 35 -72 36 -107 7
-135 -29 -26 -36 -25 -73 9 -29 29 -30 30 -54 12 -20 -16 -22 -20 -10 -39 27
-44 80 -52 145 -23 55 25 84 64 84 113 0 73 -58 175 -115 202 -36 18 -39 18
-75 7z"/>
<path d="M1469 702 c-43 -22 -50 -49 -14 -58 17 -4 32 -1 44 10 25 23 58 20
87 -9 21 -21 24 -31 19 -58 -15 -65 -20 -69 -70 -47 -25 11 -66 29 -91 40 -25
11 -47 20 -49 20 -9 0 -25 -68 -25 -104 0 -51 19 -80 70 -106 57 -29 111 -26
151 7 74 63 105 208 54 259 -49 49 -128 70 -176 46z m45 -192 c51 -23 53 -26
30 -58 -23 -33 -49 -44 -78 -32 -30 11 -41 45 -27 83 13 32 16 33 75 7z"/>
<path d="M2553 599 c-33 -16 -46 -30 -59 -65 -15 -39 -15 -51 -4 -105 17 -79
58 -136 105 -145 41 -7 98 2 137 22 79 41 78 196 -2 276 -33 34 -43 38 -86 38
-29 0 -66 -8 -91 -21z m116 -44 c11 -14 27 -58 36 -97 19 -83 9 -124 -32 -134
-44 -11 -69 9 -92 77 -37 111 -22 179 40 179 18 0 35 -9 48 -25z"/>
<path d="M1800 583 c-29 -11 -63 -49 -82 -93 -23 -53 -35 -183 -20 -222 19
-47 71 -76 173 -97 52 -11 95 -18 97 -16 8 8 83 397 78 402 -18 19 -212 39
-246 26z m144 -29 c9 -3 16 -16 16 -28 0 -24 -58 -315 -65 -326 -10 -16 -81
10 -104 37 -22 25 -23 33 -19 108 6 89 37 176 72 200 21 15 72 20 100 9z"/>
<path d="M2354 546 c-10 -41 1 -58 38 -54 30 3 33 6 33 38 0 32 -3 35 -32 38
-28 3 -33 -1 -39 -22z"/>
<path d="M3276 514 c-23 -23 -20 -51 9 -70 23 -15 27 -15 50 0 14 9 25 25 25
36 0 24 -26 50 -50 50 -10 0 -26 -7 -34 -16z"/>
</g>
</svg>
