<?xml version="1.0" standalone="no"?>
<!DOCTYPE svg PUBLIC "-//W3C//DTD SVG 20010904//EN"
 "http://www.w3.org/TR/2001/REC-SVG-20010904/DTD/svg10.dtd">
<svg version="1.0" xmlns="http://www.w3.org/2000/svg"
 width="1080.000000pt" height="1080.000000pt" viewBox="0 0 1080.000000 1080.000000"
 preserveAspectRatio="xMidYMid meet">

<g transform="translate(0.000000,1080.000000) scale(0.100000,-0.100000)"
fill="#000000" stroke="none">
<path d="M4575 10174 c-22 -8 -59 -19 -82 -24 -48 -12 -56 -28 -43 -85 5 -22
10 -55 10 -74 0 -18 7 -63 15 -100 7 -36 19 -102 25 -146 21 -163 38 -281 49
-335 17 -93 33 -193 37 -240 9 -89 10 -90 59 -90 40 0 47 4 67 35 13 19 28 35
34 35 6 0 33 -9 59 -21 41 -18 62 -21 149 -17 85 3 109 8 151 31 83 44 105 71
137 161 25 71 24 255 -2 353 -36 137 -87 221 -164 271 -38 25 -49 27 -151 27
-99 -1 -115 -3 -164 -28 -85 -42 -77 -50 -100 118 -22 164 -16 154 -86 129z
m346 -343 c77 -47 127 -182 136 -369 6 -116 -12 -168 -72 -218 -38 -31 -48
-34 -106 -34 -35 0 -70 4 -78 9 -14 9 -25 54 -46 201 -18 119 -41 280 -51 342
l-7 48 44 19 c58 26 139 27 180 2z"/>
<path d="M6735 10000 c-45 -21 -85 -51 -127 -95 -30 -31 -128 -222 -128 -248
0 -8 -7 -28 -15 -43 -8 -16 -15 -39 -15 -50 0 -12 -7 -39 -17 -60 -12 -29 -16
-72 -17 -169 -1 -115 2 -135 21 -176 28 -58 114 -139 173 -163 25 -10 56 -24
70 -31 40 -20 168 -38 223 -31 90 12 140 49 206 151 35 55 48 93 35 104 -5 5
-32 15 -60 24 -27 9 -57 19 -66 22 -12 5 -22 -8 -42 -50 -37 -82 -80 -131
-130 -150 -41 -16 -48 -16 -100 -1 -72 21 -122 65 -137 119 -42 153 102 628
221 730 63 54 125 59 215 16 62 -29 79 -67 80 -174 l1 -90 67 -9 c95 -12 97
-10 97 76 0 154 -72 233 -270 294 -96 30 -225 32 -285 4z"/>
<path d="M3990 9740 c-88 -21 -115 -30 -165 -55 -73 -37 -134 -102 -156 -166
-23 -66 -25 -185 -4 -236 8 -19 15 -45 15 -57 0 -12 6 -30 14 -41 7 -11 16
-33 20 -50 4 -16 21 -49 37 -73 16 -23 29 -46 29 -50 0 -15 86 -89 128 -110
53 -27 190 -31 236 -7 15 8 35 15 42 15 22 0 127 55 163 86 53 44 72 94 69
177 l-3 72 -35 -2 c-20 -1 -49 -9 -65 -17 -17 -9 -36 -16 -44 -16 -10 0 -12
-9 -8 -34 8 -48 -10 -115 -36 -137 -38 -32 -114 -50 -159 -38 -64 17 -139 115
-161 210 -7 28 -4 29 161 89 31 12 70 27 85 35 16 8 36 15 45 15 9 0 29 6 43
14 14 7 39 16 55 20 35 9 64 34 64 55 0 33 -66 147 -119 204 -77 83 -166 117
-251 97z m63 -138 c10 -9 36 -48 58 -87 39 -70 39 -95 1 -95 -9 0 -34 -8 -56
-18 -52 -23 -100 -41 -149 -54 -56 -16 -62 -5 -62 117 0 102 0 103 29 127 17
12 39 26 50 30 33 11 108 0 129 -20z"/>
<path d="M3239 9691 c-8 -3 -28 -16 -43 -28 -25 -20 -28 -28 -23 -59 3 -20 13
-44 22 -54 8 -9 15 -23 15 -32 0 -8 14 -46 31 -84 55 -123 66 -148 84 -194 30
-74 55 -133 70 -165 17 -36 65 -161 65 -169 0 -16 -44 16 -115 85 -44 42 -116
108 -159 145 -43 38 -132 117 -197 177 -66 59 -127 107 -138 107 -10 0 -38
-15 -62 -33 -24 -18 -52 -36 -62 -40 -36 -13 -31 -43 28 -192 18 -46 36 -96
47 -135 5 -19 14 -39 19 -44 5 -6 9 -16 9 -23 0 -8 7 -30 17 -51 9 -20 22 -55
28 -77 7 -22 31 -91 53 -153 23 -64 35 -109 28 -105 -7 5 -136 127 -285 273
-150 146 -276 266 -281 268 -7 3 -45 -21 -137 -87 -12 -9 -23 -20 -23 -24 0
-10 387 -387 681 -665 36 -34 73 -62 82 -62 20 0 143 85 150 104 5 12 -38 149
-62 201 -6 11 -21 54 -35 95 -14 41 -35 100 -46 130 -12 30 -34 93 -50 140
-16 47 -39 111 -51 143 -11 32 -18 61 -15 64 6 6 86 -60 221 -182 44 -40 114
-101 155 -136 41 -35 95 -83 120 -106 88 -81 115 -103 130 -102 27 0 135 84
138 108 2 12 -5 41 -16 64 -11 23 -32 73 -47 111 -15 38 -31 77 -35 85 -5 9
-29 68 -55 131 -233 575 -235 580 -256 571z"/>
<path d="M7473 9455 c-98 -46 -222 -198 -266 -325 -37 -109 -41 -154 -22 -237
17 -73 22 -82 81 -141 48 -48 84 -72 149 -102 75 -35 94 -40 161 -40 80 0 112
11 191 69 115 84 223 302 223 451 0 107 -34 171 -129 243 -137 102 -280 133
-388 82z m283 -133 c22 -16 48 -47 58 -69 17 -39 17 -42 -3 -109 -41 -130
-161 -330 -228 -380 -62 -46 -139 -37 -198 22 -32 32 -35 40 -35 93 0 37 8 81
23 118 36 97 118 233 177 295 55 57 56 58 111 58 46 0 63 -5 95 -28z"/>
<path d="M5425 9371 c-44 -18 -56 -45 -53 -112 3 -59 5 -65 37 -86 45 -31 92
-30 130 3 100 84 7 244 -114 195z"/>
<path d="M8246 8983 c-75 -90 -174 -205 -331 -387 -60 -70 -111 -136 -113
-145 -3 -19 134 -135 149 -125 10 6 162 179 222 252 21 26 62 74 91 107 29 33
65 75 80 93 35 40 76 42 144 8 86 -44 111 -82 98 -151 -7 -34 -25 -57 -225
-290 -167 -194 -193 -227 -185 -234 104 -89 133 -111 146 -111 13 0 105 100
252 275 33 38 79 92 102 118 70 79 96 133 96 202 1 135 -112 244 -299 289 -76
19 -83 26 -83 93 0 23 -8 38 -31 57 -17 14 -34 26 -39 26 -4 0 -38 -35 -74
-77z"/>
<path d="M8938 8437 c-16 -13 -28 -27 -28 -31 0 -5 16 -28 35 -52 19 -23 35
-45 35 -47 0 -3 -42 -40 -92 -82 -192 -160 -322 -271 -346 -295 -51 -53 -64
-119 -37 -184 28 -66 146 -176 188 -176 20 0 47 33 47 57 0 11 -11 28 -25 37
-14 9 -32 28 -41 42 -23 35 -9 61 69 126 213 177 304 254 322 271 29 27 50 37
61 29 5 -4 27 -28 48 -54 21 -27 45 -48 52 -48 8 0 27 12 44 28 l30 27 -49 58
c-28 32 -48 63 -45 70 2 7 34 35 69 62 36 28 63 55 62 60 -4 13 -157 104 -175
105 -8 0 -33 -16 -57 -35 l-43 -36 -37 46 c-21 25 -42 45 -49 45 -6 -1 -23
-11 -38 -23z"/>
<path d="M1985 8404 c-27 -42 -40 -134 -28 -210 l10 -67 -90 6 c-85 4 -92 3
-114 -19 -12 -13 -23 -28 -23 -33 0 -10 142 -129 240 -201 26 -19 103 -80 171
-135 68 -55 147 -117 174 -137 l51 -37 61 77 c33 42 59 81 57 87 -3 5 -26 26
-53 45 -128 92 -343 274 -367 310 -24 35 -26 47 -21 99 4 44 12 69 36 101 17
24 31 46 31 50 0 7 -105 90 -113 90 -3 0 -12 -12 -22 -26z"/>
<path d="M9233 7842 c-24 -9 -43 -20 -43 -24 0 -8 57 -139 64 -145 1 -2 19 4
39 12 42 17 119 20 148 4 30 -16 79 -89 79 -118 0 -40 -42 -94 -106 -136 -31
-21 -62 -38 -68 -39 -6 0 -53 47 -103 105 -165 192 -275 237 -401 163 -98 -58
-128 -169 -76 -280 43 -92 115 -148 237 -188 17 -5 16 -8 -3 -47 -12 -22 -22
-53 -22 -68 -1 -31 41 -101 61 -101 23 0 494 280 535 319 104 97 101 245 -7
405 -53 78 -83 109 -134 135 -51 26 -138 27 -200 3z m-119 -331 c31 -20 146
-146 146 -161 0 -4 -40 -31 -89 -59 -88 -51 -90 -51 -135 -40 -90 22 -169 124
-145 186 13 34 47 72 74 83 38 16 116 11 149 -9z"/>
<path d="M1586 7753 c-43 -11 -116 -67 -155 -118 -37 -49 -52 -76 -95 -177
-21 -47 -21 -167 -1 -194 8 -10 15 -27 15 -37 0 -10 35 -53 78 -96 64 -65 94
-87 174 -125 138 -67 258 -81 355 -41 17 7 53 33 79 57 130 119 191 317 132
434 -12 24 -25 44 -30 44 -4 0 -8 6 -8 13 -1 31 -123 132 -220 182 -99 51
-247 77 -324 58z m98 -185 c115 -41 271 -133 332 -196 59 -61 64 -138 12 -204
-55 -70 -134 -73 -273 -8 -116 54 -192 103 -252 161 -51 50 -53 54 -53 107 0
64 26 114 74 143 41 25 85 24 160 -3z"/>
<path d="M9545 7055 c-264 -61 -415 -186 -415 -341 0 -50 24 -138 46 -172 22
-35 81 -89 117 -108 27 -15 28 -16 13 -37 -38 -51 -39 -72 -15 -154 10 -33 15
-34 64 -13 11 5 36 13 55 19 40 11 415 138 445 150 11 5 63 23 115 40 312 104
370 125 370 133 0 16 -72 157 -86 169 -12 10 -53 -1 -204 -57 -56 -21 -57 -20
-62 64 -8 137 -95 272 -197 303 -58 17 -180 20 -246 4z m231 -196 c33 -9 54
-22 80 -54 33 -41 35 -46 32 -111 l-3 -67 -90 -29 c-49 -15 -99 -33 -110 -38
-11 -5 -36 -14 -55 -19 -19 -6 -81 -26 -138 -45 -95 -33 -106 -35 -135 -22
-44 19 -69 45 -91 95 -17 37 -18 47 -7 79 18 50 55 87 126 127 132 74 293 108
391 84z"/>
<path d="M847 7043 c-10 -16 -38 -166 -33 -179 3 -7 58 -29 123 -49 65 -20
124 -38 131 -41 10 -3 6 -13 -13 -35 -56 -67 -77 -126 -79 -219 -2 -122 7
-151 64 -213 115 -126 420 -218 568 -172 99 31 151 85 185 192 22 69 21 114
-4 186 -11 32 -18 62 -14 65 3 4 20 12 38 18 40 13 65 48 73 100 l6 41 -73 23
c-41 12 -92 28 -114 35 -52 16 -141 44 -290 89 -66 20 -172 53 -235 73 -63 19
-137 42 -165 50 -27 7 -63 19 -80 25 -46 16 -82 21 -88 11z m498 -354 c39 -12
88 -26 110 -31 22 -6 47 -14 55 -18 8 -4 50 -17 93 -30 101 -30 122 -56 121
-148 0 -54 -4 -66 -28 -91 -49 -51 -120 -62 -241 -36 -133 27 -232 70 -303
130 -63 53 -64 179 -1 242 32 34 22 35 194 -18z"/>
<path d="M9710 6173 c-57 -7 -161 -42 -206 -68 -58 -34 -116 -103 -138 -164
-23 -65 -18 -217 10 -304 27 -83 100 -161 175 -187 77 -26 197 -35 291 -21
284 44 400 187 358 439 -36 212 -138 300 -355 307 -55 2 -116 1 -135 -2z m319
-218 c48 -25 71 -69 71 -140 0 -42 -6 -66 -18 -81 -46 -56 -138 -88 -305 -105
-229 -23 -327 21 -327 147 0 113 84 162 335 198 64 9 213 -2 244 -19z"/>
<path d="M965 5995 c-104 -57 -149 -158 -150 -335 0 -99 3 -121 22 -155 26
-50 65 -86 120 -114 84 -42 106 -27 119 84 6 50 5 53 -17 60 -108 31 -149 71
-149 144 0 50 22 92 60 115 31 18 194 23 205 6 3 -5 8 -40 11 -77 9 -116 36
-255 60 -310 16 -35 37 -62 65 -83 39 -28 48 -30 129 -30 80 0 90 2 127 29 23
17 50 49 63 75 19 40 21 59 18 144 -3 95 -4 99 -46 163 -23 36 -42 69 -42 72
0 3 20 13 45 23 54 20 61 30 70 107 l7 57 -68 0 c-38 0 -109 7 -159 15 -49 8
-173 18 -275 21 -160 5 -189 3 -215 -11z m447 -215 c64 0 73 -5 108 -60 61
-95 49 -190 -30 -230 -35 -18 -46 -19 -83 -9 -53 14 -127 87 -128 127 0 15 -4
62 -7 104 -8 87 -6 90 58 76 19 -4 56 -8 82 -8z"/>
<path d="M9407 5246 c-4 -10 -7 -55 -7 -100 l0 -83 63 -7 c34 -3 154 -11 267
-17 175 -9 210 -13 241 -31 49 -28 83 -89 89 -163 l5 -60 60 -6 c82 -8 92 2
75 73 -15 61 -54 124 -106 166 l-36 30 79 44 78 44 3 47 3 47 -123 0 c-68 1
-169 5 -225 10 -57 5 -183 12 -281 16 -164 6 -179 5 -185 -10z"/>
<path d="M1528 5144 c-4 -3 -113 -10 -245 -15 -131 -5 -278 -13 -328 -18 -49
-6 -164 -13 -254 -17 l-164 -6 7 -70 c3 -38 13 -85 21 -104 14 -34 15 -35 62
-29 26 2 153 10 282 16 129 5 257 14 284 20 27 5 98 9 157 9 59 0 148 3 198 6
l92 7 0 57 c0 32 -3 78 -6 104 l-7 46 -47 0 c-26 0 -49 -3 -52 -6z"/>
<path d="M1565 4723 c-16 -2 -61 -10 -100 -18 -69 -14 -123 -23 -300 -50 -49
-7 -112 -18 -140 -24 -54 -10 -300 -52 -403 -68 -49 -8 -50 0 5 -160 17 -49
30 -52 122 -29 31 8 92 19 136 26 44 6 116 17 160 24 44 8 127 21 185 30 58 9
119 21 135 25 17 5 59 12 94 15 35 3 80 10 100 16 20 5 58 12 85 15 l49 7 -7
84 c-4 47 -10 92 -13 100 -5 14 -37 16 -108 7z"/>
<path d="M9309 4393 c-6 -16 -19 -57 -29 -93 -19 -65 -16 -79 17 -80 6 0 60
-15 120 -34 59 -19 119 -37 133 -40 14 -3 33 -11 43 -19 20 -14 22 -7 -29
-165 -8 -23 -14 -81 -14 -128 0 -74 4 -91 26 -129 51 -87 137 -141 270 -170
75 -16 85 -16 144 -1 35 9 78 26 96 37 43 26 97 109 122 189 48 150 112 357
112 362 0 4 -15 11 -32 16 -150 47 -304 93 -548 166 -157 47 -305 93 -330 101
-67 22 -89 20 -101 -12z m481 -323 c79 -23 272 -81 353 -107 43 -13 48 -18 42
-37 -4 -11 -13 -42 -20 -69 -36 -125 -111 -158 -272 -121 -87 20 -180 64 -218
104 -27 29 -30 37 -30 98 1 81 29 165 54 158 9 -2 50 -14 91 -26z"/>
<path d="M1445 4314 c-183 -44 -282 -92 -358 -173 -30 -33 -61 -77 -67 -97
-17 -51 -9 -208 14 -259 54 -120 69 -145 107 -179 52 -48 90 -63 170 -72 69
-7 202 9 253 31 17 7 51 21 76 31 63 27 155 97 184 141 14 21 32 66 41 101 15
59 15 70 0 145 -44 219 -147 324 -325 333 -41 1 -84 1 -95 -2z m262 -215 c37
-35 53 -72 53 -124 0 -55 -19 -86 -76 -126 -80 -55 -324 -139 -405 -139 -63 0
-115 32 -144 90 -30 60 -31 79 -5 131 23 43 83 87 159 116 25 9 51 19 56 23
15 10 145 49 180 54 17 2 58 3 93 1 50 -2 69 -8 89 -26z"/>
<path d="M9084 3646 c-74 -33 -155 -156 -169 -254 -3 -26 -1 -69 5 -96 13 -58
6 -66 -56 -66 -40 0 -43 -2 -69 -51 -14 -28 -24 -57 -21 -64 4 -12 51 -40 191
-115 33 -18 85 -46 115 -63 240 -133 382 -205 395 -201 8 3 33 39 56 80 32 58
38 78 29 88 -9 12 -177 106 -380 214 -152 80 -173 95 -186 136 -22 63 13 165
67 194 56 30 103 13 379 -137 145 -78 268 -140 275 -137 13 5 95 146 95 163 0
8 -194 119 -299 171 -14 7 -57 31 -96 53 -38 22 -94 52 -124 66 -65 31 -161
40 -207 19z"/>
<path d="M1980 3453 c-225 -123 -410 -213 -442 -213 -46 0 -121 49 -153 100
-29 46 -57 52 -98 20 -14 -11 -32 -20 -39 -20 -28 0 -28 -13 -1 -49 50 -66
114 -104 198 -116 25 -4 45 -9 45 -12 0 -2 -8 -16 -18 -31 -58 -88 -65 -106
-58 -147 12 -62 10 -63 256 68 41 22 104 56 140 76 90 49 175 94 240 127 30
14 67 35 82 46 l27 19 -41 77 c-38 70 -54 92 -68 91 -3 0 -34 -16 -70 -36z"/>
<path d="M2270 3018 c-24 -18 -50 -37 -59 -43 -9 -5 -63 -44 -120 -85 -144
-104 -180 -127 -229 -146 -39 -16 -45 -16 -89 1 -28 11 -67 38 -95 67 l-47 49
-56 -37 c-30 -20 -55 -42 -55 -49 0 -6 12 -23 28 -37 51 -47 95 -66 170 -73
39 -4 74 -10 76 -14 3 -4 -11 -42 -30 -85 l-34 -77 21 -30 c24 -34 40 -36 77
-10 15 11 80 57 144 103 65 46 165 116 223 157 58 41 105 77 105 80 0 3 12 12
28 19 48 22 109 76 103 92 -15 37 -98 150 -110 150 -5 0 -27 -15 -51 -32z"/>
<path d="M9778 3043 c-13 -3 -18 -15 -18 -41 0 -35 28 -266 35 -288 2 -8 26
-6 80 7 43 10 80 20 82 23 8 7 -140 300 -152 302 -5 1 -18 0 -27 -3z"/>
<path d="M8640 2950 c-24 -26 -27 -35 -22 -75 4 -37 2 -45 -12 -45 -9 0 -45
-14 -80 -30 -110 -52 -203 -174 -214 -281 -11 -110 114 -291 273 -398 137 -91
258 -116 347 -70 64 32 152 127 186 198 l30 62 58 -51 c33 -29 78 -66 102 -83
23 -17 42 -34 42 -39 0 -4 8 -8 18 -8 18 0 99 112 109 150 4 15 -105 117 -267
250 -30 25 -75 64 -100 87 -25 22 -84 74 -132 115 -48 40 -132 112 -186 161
-55 48 -105 87 -112 87 -6 0 -24 -13 -40 -30z m110 -295 c51 -44 132 -114 180
-156 47 -41 101 -85 118 -98 38 -27 40 -40 7 -89 -51 -77 -96 -112 -148 -112
-131 0 -394 220 -412 344 -12 79 34 160 110 192 36 15 28 19 145 -81z"/>
<path d="M2318 2540 c-120 -121 -227 -238 -238 -260 -30 -59 -28 -156 6 -223
34 -66 154 -186 217 -216 69 -33 151 -31 223 5 82 41 83 44 29 111 -26 32 -51
59 -55 61 -4 2 -29 -11 -56 -28 -36 -22 -60 -30 -96 -30 -41 0 -52 5 -89 40
-41 39 -41 40 -37 95 5 54 8 60 66 118 l61 61 28 -20 c188 -138 280 -184 370
-184 63 0 95 14 144 67 92 96 92 194 1 295 -65 72 -162 117 -258 118 l-32 0
16 61 15 60 -44 45 c-24 24 -46 44 -49 44 -3 0 -103 -99 -222 -220z m392 -83
c31 -16 52 -37 69 -66 23 -42 23 -43 5 -82 -49 -111 -158 -128 -285 -45 -101
67 -100 59 -12 149 l78 79 50 -6 c27 -3 70 -16 95 -29z"/>
<path d="M8050 2333 c-68 -55 -100 -85 -100 -92 0 -4 23 -33 51 -64 28 -31 72
-83 97 -115 26 -32 70 -85 99 -118 29 -32 69 -80 90 -106 63 -77 278 -330 327
-383 l46 -50 60 65 c33 36 60 74 60 86 0 13 -42 70 -102 141 -97 113 -230 269
-350 411 -29 35 -87 105 -129 155 -41 51 -84 93 -95 95 -11 1 -35 -10 -54 -25z"/>
<path d="M3025 2151 c-35 -14 -107 -94 -126 -139 -40 -92 -17 -161 99 -309
121 -154 135 -198 85 -252 -40 -44 -69 -47 -132 -14 -91 46 -101 73 -89 218 3
26 -3 33 -52 62 -30 18 -62 33 -71 33 -24 0 -39 -50 -39 -129 0 -58 5 -74 33
-121 62 -104 216 -198 337 -207 46 -3 63 1 105 24 90 51 144 150 130 240 -6
41 -64 155 -85 168 -15 9 -116 146 -134 183 -41 80 45 153 144 123 23 -7 54
-29 80 -57 l43 -47 -6 -83 -6 -84 60 -35 c33 -19 65 -32 71 -29 19 12 38 74
38 126 0 119 -99 237 -262 313 -42 20 -69 25 -128 24 -41 0 -84 -4 -95 -8z"/>
<path d="M7708 2072 c-37 -26 -72 -52 -79 -59 -13 -13 16 -67 101 -188 27 -38
110 -161 185 -272 75 -110 141 -205 148 -211 8 -7 34 5 87 40 79 52 91 69 67
96 -20 24 -160 229 -399 585 -21 31 -40 57 -41 56 -1 0 -32 -22 -69 -47z"/>
<path d="M7265 1821 c-107 -30 -215 -103 -260 -174 -19 -30 -25 -159 -11 -223
10 -44 32 -46 105 -12 l63 29 -8 47 c-23 127 -4 181 76 212 57 22 89 12 148
-44 71 -68 166 -253 192 -374 18 -88 4 -131 -55 -172 -64 -44 -101 -41 -157
13 -24 23 -53 55 -64 70 l-20 28 -64 -42 c-36 -23 -66 -44 -68 -45 -11 -7 35
-69 78 -106 67 -58 121 -72 209 -53 141 30 260 108 305 200 27 53 28 64 23
139 -16 217 -173 465 -323 511 -62 19 -94 18 -169 -4z"/>
<path d="M3725 1781 c-65 -16 -126 -63 -154 -118 -11 -21 -8 -24 36 -46 82
-42 88 -42 131 -3 49 44 85 58 131 50 74 -14 111 -44 135 -113 14 -37 14 -47
1 -84 -8 -23 -15 -48 -15 -55 0 -7 -9 -35 -21 -62 -24 -55 -16 -55 -127 -4
-41 19 -76 34 -78 34 -5 0 -61 25 -149 65 -118 54 -122 55 -140 35 -34 -37
-69 -202 -61 -283 11 -112 79 -191 214 -249 68 -29 88 -32 167 -33 88 0 91 1
148 39 90 60 166 173 217 321 19 55 24 90 24 165 0 85 -3 100 -28 142 -33 57
-80 100 -146 133 -113 57 -221 82 -285 66z m25 -504 c117 -49 150 -65 150 -74
0 -11 -52 -98 -74 -121 -47 -52 -110 -65 -172 -36 -37 18 -74 72 -74 111 0 20
17 93 35 151 7 19 23 15 135 -31z"/>
<path d="M6450 1526 c-89 -32 -122 -50 -159 -87 -58 -58 -74 -102 -79 -225 -4
-122 14 -212 66 -324 37 -79 133 -171 196 -189 88 -25 190 -13 315 37 130 53
191 152 191 308 0 212 -101 418 -235 480 -70 33 -202 33 -295 0z m184 -108
c73 -60 142 -251 153 -423 5 -83 3 -93 -19 -125 -30 -45 -81 -70 -140 -70 -39
0 -54 6 -82 31 -68 59 -133 247 -142 409 -7 117 8 153 76 188 63 32 107 29
154 -10z"/>
<path d="M4520 1461 c-158 -59 -224 -160 -285 -433 -25 -112 -17 -315 14 -377
58 -111 167 -185 316 -211 22 -4 110 -22 195 -39 180 -38 172 -41 190 72 7 40
16 86 21 102 5 17 16 68 25 115 48 253 70 368 82 420 35 150 54 272 45 281 -5
5 -45 16 -89 23 -154 27 -210 38 -265 52 -74 19 -193 17 -249 -5z m323 -80
c26 -4 52 -12 58 -18 10 -10 0 -79 -61 -388 -6 -33 -18 -85 -25 -115 -8 -30
-17 -80 -20 -110 -4 -30 -13 -74 -21 -98 -8 -23 -14 -58 -14 -77 0 -27 -12
-71 -26 -93 -5 -8 -163 31 -201 49 -79 38 -113 115 -113 257 0 134 50 353 107
465 25 51 83 114 117 127 26 11 136 11 199 1z"/>
<path d="M5934 1421 c-68 -29 -87 -130 -35 -182 24 -24 38 -29 76 -29 40 0 52
5 81 34 24 24 34 43 34 65 0 34 -20 80 -42 99 -19 16 -89 23 -114 13z"/>
<path d="M8224 1311 c-40 -17 -64 -60 -64 -112 0 -40 5 -55 31 -84 28 -32 36
-35 86 -35 49 0 59 4 89 34 30 30 34 40 34 85 0 41 -5 56 -28 82 -23 26 -37
32 -78 35 -27 2 -59 0 -70 -5z"/>
</g>
</svg>
